<svg xmlns="http://www.w3.org/2000/svg" viewBox="0 0 24 24" fill="none" stroke="currentColor" stroke-width="2" stroke-linecap="round" stroke-linejoin="round"><path d="M12 15.5a3.5 3.5 0 1 0 0-7 3.5 3.5 0 0 0 0 7Z"/><path d="M19.4 15a1.65 1.65 0 0 0 .33 1.82l.06.06a2 2 0 1 1-2.83 2.83l-.06-.06A1.65 1.65 0 0 0 15 19.4a1.65 1.65 0 0 0-1 .6 1.65 1.65 0 0 0-.4 1.1V21a2 2 0 1 1-4 0v-.09A1.65 1.65 0 0 0 9 19.4a1.65 1.65 0 0 0-1.82.33l-.06.06a2 2 0 1 1-2.83-2.83l.06-.06A1.65 1.65 0 0 0 4.6 15a1.65 1.65 0 0 0-.6-1 1.65 1.65 0 0 0-1.1-.4H3a2 2 0 1 1 0-4h.09A1.65 1.65 0 0 0 4.6 9a1.65 1.65 0 0 0-.33-1.82l-.06-.06a2 2 0 1 1 2.83-2.83l.06.06A1.65 1.65 0 0 0 9 4.6a1.65 1.65 0 0 0 1-.6 1.65 1.65 0 0 0 .4-1.1V3a2 2 0 1 1 4 0v.09A1.65 1.65 0 0 0 15 4.6a1.65 1.65 0 0 0 1.82-.33l.06-.06a2 2 0 1 1 2.83 2.83l-.06.06A1.65 1.65 0 0 0 19.4 9c.22.38.57.7 1 .87.33.13.7.13 1.1.13h.5a2 2 0 1 1 0 4h-.5c-.4 0-.77 0-1.1.13-.43.17-.78.49-1 .87Z"/></svg>